<svg xmlns="http://www.w3.org/2000/svg" xmlns:xlink="http://www.w3.org/1999/xlink" version="1.1" x="0px" y="0px" viewBox="0 0 100 100" enable-background="new 0 0 100 100" xml:space="preserve"><path d="M14.4,77.5h34.1c1.4,0,2.5,1.1,2.5,2.5c0,1.4-1.1,2.5-2.5,2.5H14.4c-1.4,0-2.5-1.1-2.5-2.5C11.9,78.6,13.1,77.5,14.4,77.5z   M69.6,25.1v-7.4c0-5.9-4.7-10.6-10.6-10.6H24.3c-0.6,0-1.2,0.1-1.8,0.3c-0.6,0.2-1.1,0.6-1.5,1L2.8,25.9c-0.5,0.4-0.8,1-1.1,1.6  c-0.3,0.6-0.4,1.2-0.4,1.9v53c0,5.9,4.7,10.6,10.6,10.6h47c5.9,0,10.6-4.7,10.6-10.6v-5.7c-1.6,0.7-3.3,1.3-5,1.7v4  c0,3.1-2.5,5.6-5.6,5.6H12c-3.1,0-5.6-2.5-5.6-5.6V30.8h8.9c5.8,0,10.6-4.8,10.6-10.6v-8.1H59c3.1,0,5.6,2.5,5.6,5.6v5.7  C66.3,23.8,68,24.4,69.6,25.1z M38.3,30.9c1.3-1.3,2.7-2.4,4.1-3.4h-9.1c-1.4,0-2.5,1.1-2.5,2.5s1.1,2.5,2.5,2.5h3.5  C37.3,32,37.7,31.4,38.3,30.9z M35.4,67.5H14.6c-1.4,0-2.5,1.1-2.5,2.5c0,1.4,1.1,2.5,2.5,2.5h25.5c-0.7-0.5-1.3-1.1-1.9-1.7  C37.2,69.7,36.3,68.6,35.4,67.5z M12.1,60c0,1.4,1.1,2.5,2.5,2.5h17.9c-0.7-1.6-1.3-3.3-1.7-5H14.6C13.3,57.5,12.1,58.6,12.1,60  L12.1,60z M14.6,47.5c-1.4,0-2.5,1.1-2.5,2.5c0,1.4,1.1,2.5,2.5,2.5h15.4c0-0.6-0.1-1.1-0.1-1.7c0-1.1,0.1-2.2,0.2-3.3H14.6z   M12.1,40c0,1.4,1.1,2.5,2.5,2.5h16.6c0.5-1.7,1.2-3.4,2.1-5H14.6C13.3,37.5,12.1,38.6,12.1,40z M97.4,90c-0.9,0.9-2,1.3-3.1,1.3  c-1.1,0-2.2-0.4-3.1-1.3L73.8,72.7l0.9-0.9l-2.5-2.5c-4.1,3.1-9.1,4.7-14,4.7c-5.9,0-11.9-2.3-16.4-6.8c-9.1-9.1-9.1-23.7,0-32.8  c4.5-4.5,10.5-6.8,16.4-6.8s11.9,2.3,16.4,6.8c8.3,8.3,9,21.3,2.1,30.4l2.5,2.5l0.9-0.9l17.3,17.3C99.1,85.5,99.1,88.3,97.4,90z   M70.3,38.7c-3.3-3.3-7.7-5-12.1-5s-8.8,1.7-12.1,5c-6.7,6.7-6.7,17.5,0,24.2c3.3,3.3,7.7,5,12.1,5s8.8-1.7,12.1-5  C77,56.3,77,45.4,70.3,38.7z M60.7,40.6h-5v7.8h-7.8v5h7.8v7.8h5v-7.8h7.8v-5h-7.8V40.6z"></path></svg>