<svg xmlns:dc="http://purl.org/dc/elements/1.1/" xmlns:cc="http://creativecommons.org/ns#" xmlns:rdf="http://www.w3.org/1999/02/22-rdf-syntax-ns#" xmlns:svg="http://www.w3.org/2000/svg" xmlns="http://www.w3.org/2000/svg" xmlns:sodipodi="http://sodipodi.sourceforge.net/DTD/sodipodi-0.dtd" xmlns:inkscape="http://www.inkscape.org/namespaces/inkscape" version="1.1" x="0px" y="0px" viewBox="0 0 100 100"><g transform="translate(0,-952.36218)"><g transform="translate(4.2426342,5.0000163)"><path transform="matrix(1.5272727,0,0,1.5272727,11.39373,901.90762)" d="M 50,62.5 C 50,77.687831 37.687831,90 22.5,90 7.3121694,90 -5,77.687831 -5,62.5 -5,47.312169 7.3121694,35 22.5,35 37.687831,35 50,47.312169 50,62.5 z" style="" fill="none" stroke="#000404" stroke-width="3.92857146" stroke-linecap="round" stroke-linejoin="round" stroke-miterlimit="4" stroke-opacity="1" stroke-dasharray="none"></path><path d="m 56.363975,982.51292 -10.606616,10.60666 -10.606602,-10.60665 -4.24264,4.24265 10.606601,10.6066 -10.606601,10.60662 4.24264,4.2426 10.606602,-10.6066 10.606602,10.6066 4.24264,-4.2426 L 50,997.36218 l 10.606615,-10.60662 -4.24264,-4.24264 z" style="" fill="#000000" fill-opacity="1" stroke="#000404" stroke-width="6" stroke-linecap="round" stroke-linejoin="round" stroke-miterlimit="4" stroke-opacity="1" stroke-dasharray="none"></path></g></g></svg>