<svg id="Layer_1" data-name="Layer 1" xmlns="http://www.w3.org/2000/svg" viewBox="0 0 164.64 43.85"><defs><style>.cls-1{fill:#231f20;}</style></defs><title>Untitled-1</title><path class="cls-1" d="M230,418h-6.27V374.59h25.9v6.27H230V393.1h17.39v6.34H230V418Z" transform="translate(-223.69 -374.59)"/><path class="cls-1" d="M270.33,411.73h20.43V418h-26.7V374.59h6.27v37.14Z" transform="translate(-223.69 -374.59)"/><path class="cls-1" d="M304.05,405V374.59h6.33V405c0,4.78,5.16,7.14,9.75,7.14s9.69-2.42,9.69-7.2V374.59h6.33V405c0,8.82-8.57,13.41-16,13.41C312.5,418.44,304.05,413.84,304.05,405Z" transform="translate(-223.69 -374.59)"/><path class="cls-1" d="M362.68,382.39l-5.66-7.8h-7.7L365,396.2c-4.66,6.4-11.74,16.27-15.71,21.8H357l11.8-16.27L380.69,418h7.64Zm12.09,10.85c4.45-6.1,10-13.71,13.56-18.65h-7.64L371,387.94Z" transform="translate(-223.69 -374.59)"/></svg>