<?xml version="1.0" encoding="utf-8"?>
<!-- Generator: Adobe Illustrator 16.0.0, SVG Export Plug-In . SVG Version: 6.00 Build 0)  -->
<!DOCTYPE svg PUBLIC "-//W3C//DTD SVG 1.1//EN" "http://www.w3.org/Graphics/SVG/1.1/DTD/svg11.dtd">
<svg version="1.1" xmlns="http://www.w3.org/2000/svg" xmlns:xlink="http://www.w3.org/1999/xlink" x="0px" y="0px"
	 width="206.01px" height="315.4px" viewBox="0 0 206.01 315.4" enable-background="new 0 0 206.01 315.4" xml:space="preserve">
<g id="Layer_1">
	<polygon fill="#FFFFFF" points="103.005,-0.001 0,59.47 0,178.41 103.005,237.882 205.528,178.763 206.009,59.47 	"/>
	<polygon fill="#6398C0" points="68.671,178.41 34.337,158.59 68.671,138.764 	"/>
	<polygon fill="#6553A1" points="68.671,218.059 103.005,237.882 103.005,198.235 	"/>
	<polygon fill="#40BEB2" points="34.337,158.589 68.671,138.763 34.337,118.942 	"/>
	<polygon fill="#DACD5B" points="0,138.763 34.337,158.589 34.337,118.941 	"/>
	<polygon fill="#D2A560" points="0,138.763 34.337,118.941 0,99.118 	"/>
	<polygon fill="#17A3B0" points="68.671,218.059 34.337,198.235 68.671,178.411 	"/>
	<polygon fill="#1D447F" points="34.337,198.236 68.671,178.41 34.337,158.589 	"/>
	<polygon fill="#62B24C" points="0,178.411 34.337,198.235 34.337,158.589 	"/>
	<polygon fill="#E0D882" points="0,178.411 34.337,158.589 0,138.763 	"/>
	<polygon fill="#E46D5C" points="0,99.118 34.337,79.294 0,59.47 	"/>
	<path fill="#6553A1" d="M0,138.763V99.118V138.763z"/>
	<path fill="#6553A1" d="M0,99.118V59.47V99.118z"/>
	<polygon fill="#574867" points="103.005,118.942 137.339,99.118 103.005,79.294 	"/>
	<polygon fill="#574867" points="171.676,79.293 137.339,59.471 171.676,39.646 	"/>
	<polygon fill="#1D447F" points="68.671,99.118 34.337,79.294 68.671,59.471 	"/>
	<polygon fill="#D1A45D" points="34.337,79.293 68.671,59.471 34.337,39.646 	"/>
	<polygon fill="#D83733" points="0,59.47 34.337,79.293 34.337,39.646 	"/>
	<polygon fill="#6553A1" points="68.671,138.764 34.337,118.942 68.671,99.117 	"/>
	<polygon fill="#1593C5" points="34.337,118.942 68.671,99.118 34.337,79.294 	"/>
	<polygon fill="#C88E37" points="0,99.118 34.337,118.941 34.337,79.294 	"/>
	<polygon fill="#D9D05C" points="68.671,59.471 34.337,39.646 68.671,19.823 	"/>
	<polygon fill="#1D447F" points="137.339,59.471 171.676,39.646 137.339,19.823 	"/>
	<polygon fill="#67B1AF" points="137.339,59.471 103.005,39.646 137.339,19.823 	"/>
	<polygon fill="#1D8772" points="103.005,-0.001 103.005,39.646 137.339,19.822 	"/>
	<polygon fill="#8AC175" points="103.005,-0.001 68.671,19.822 103.005,39.646 	"/>
	<polygon fill="#1D447F" points="137.339,138.764 171.676,118.942 137.339,99.117 	"/>
	<polygon fill="#1593C5" points="171.676,118.942 137.339,99.118 171.676,79.294 	"/>
	<polygon fill="#6553A1" points="171.676,158.589 137.339,138.763 171.676,118.942 	"/>
	<polygon fill="#40BEB2" points="137.339,178.41 171.676,158.59 137.339,138.764 	"/>
	<polygon fill="#B33A76" points="171.675,198.236 206.009,178.411 171.675,158.589 	"/>
	<polygon fill="#EF536E" points="171.675,158.589 206.009,178.411 206.009,138.763 	"/>
	<polygon fill="#816F8C" points="171.675,79.294 206.009,59.471 171.675,39.646 	"/>
	<polygon fill="#40BEB2" points="171.675,118.941 206.009,99.119 171.675,79.293 	"/>
	<polygon fill="#6553A1" points="171.675,79.294 206.009,99.118 206.009,59.471 	"/>
	<polygon fill="#67B0B0" points="171.675,118.941 206.009,138.764 206.009,99.119 	"/>
	<polygon fill="#755A8B" points="171.675,158.589 206.009,138.763 171.675,118.941 	"/>
	<polygon fill="#D2A560" points="137.339,178.41 103.005,158.59 137.339,138.764 	"/>
	<polygon fill="#E0D882" points="137.339,218.059 103.005,198.235 137.339,178.411 	"/>
	<polygon fill="#DACD5B" points="103.005,198.236 137.339,178.41 103.005,158.589 	"/>
	<polygon fill="#6553A1" points="137.339,138.764 103.005,118.942 137.339,99.117 	"/>
	<polygon fill="#62B24C" points="103.005,237.882 137.339,218.059 103.005,198.235 	"/>
	<polygon fill="#B63E73" points="137.339,218.059 171.676,198.235 137.339,178.411 	"/>
	<polygon fill="#EF536E" points="171.676,198.236 137.339,178.41 171.676,158.589 	"/>
</g>
<g id="Layer_2">
	<polygon fill="#FFFFFF" points="7.838,314.856 0,314.856 0,260.608 32.363,260.608 32.363,268.446 7.838,268.446 7.838,283.734 
		29.568,283.734 29.568,291.652 7.838,291.652 	"/>
	<polygon fill="#FFFFFF" points="58.283,307.016 83.815,307.016 83.815,314.856 50.445,314.856 50.445,260.608 58.283,260.608 	"/>
	<path fill="#FFFFFF" d="M100.424,298.559v-37.95h7.916v38.028c0,5.977,6.442,8.924,12.184,8.924c5.666,0,12.108-3.026,12.108-9.002
		v-37.95h7.915v38.028c0,11.021-10.709,16.764-20.023,16.764C110.979,315.4,100.424,309.657,100.424,298.559"/>
	<path fill="#FFFFFF" d="M173.695,270.359l-7.071-9.751H157l19.635,27.007c-5.821,7.993-14.668,20.333-19.635,27.24h9.624
		l14.745-20.33l14.822,20.33h9.546L173.695,270.359z M188.798,283.917c5.558-7.627,12.493-17.137,16.939-23.309h-9.546
		l-12.163,16.686L188.798,283.917z"/>
</g>
</svg>
