<?xml version="1.0" encoding="utf-8"?>
<!-- Generator: Adobe Illustrator 16.0.0, SVG Export Plug-In . SVG Version: 6.00 Build 0)  -->
<!DOCTYPE svg PUBLIC "-//W3C//DTD SVG 1.1//EN" "http://www.w3.org/Graphics/SVG/1.1/DTD/svg11.dtd">
<svg version="1.1" id="Layer_1" xmlns="http://www.w3.org/2000/svg" xmlns:xlink="http://www.w3.org/1999/xlink" x="0px" y="0px"
	 width="2483.936px" height="165.438px" viewBox="0 0 2483.936 165.438" enable-background="new 0 0 2483.936 165.438"
	 xml:space="preserve">
<polygon fill="#D3A660" points="955.363,165.461 939.443,137.881 923.524,165.461 "/>
<polygon fill="#574867" points="939.443,137.881 923.523,165.461 907.6,137.881 "/>
<polygon fill="#1D437F" points="923.524,165.461 907.6,137.881 891.68,165.461 "/>
<polygon fill="#1D437F" points="987.207,165.461 971.287,137.881 955.365,165.461 "/>
<polygon fill="#1493C6" points="971.287,137.881 955.365,165.461 939.443,137.881 "/>
<polygon fill="#6552A1" points="1003.131,137.881 987.207,165.461 971.287,137.881 "/>
<polygon fill="#40BDB2" points="1019.051,165.461 1003.131,137.881 987.207,165.461 "/>
<polygon fill="#B33975" points="1034.973,137.881 1019.051,110.306 1003.132,137.881 "/>
<polygon fill="#EF526E" points="1019.051,110.306 1003.131,137.882 987.207,110.306 "/>
<polygon fill="#826F8D" points="939.443,137.881 923.523,110.306 907.6,137.881 "/>
<polygon fill="#40BDB2" points="971.287,137.881 955.365,110.306 939.443,137.881 "/>
<polygon fill="#6552A1" points="955.365,110.306 939.443,137.882 923.524,110.306 "/>
<polygon fill="#75598C" points="1003.131,137.881 987.207,110.306 971.287,137.881 "/>
<polygon fill="#B63F73" points="1050.895,165.461 1034.973,137.881 1019.051,165.461 "/>
<polygon fill="#EF526E" points="1034.973,137.881 1019.051,165.461 1003.132,137.881 "/>
<polygon fill="#6299C1" points="1162.36,137.881 1146.44,165.456 1130.517,137.881 "/>
<polygon fill="#6552A1" points="1210.124,110.306 1194.204,137.882 1178.282,110.306 "/>
<polygon fill="#40BDB2" points="1146.44,165.457 1130.517,137.882 1114.597,165.457 "/>
<polygon fill="#40BDB2" points="1098.675,137.881 1082.753,110.306 1066.834,137.881 "/>
<polygon fill="#D3A660" points="1098.675,82.73 1082.755,55.15 1066.831,82.73 "/>
<polygon fill="#18A4B1" points="1194.204,137.881 1178.282,165.456 1162.36,137.881 "/>
<polygon fill="#1D437F" points="1178.282,165.457 1162.36,137.882 1146.441,165.457 "/>
<polygon fill="#1D437F" points="1162.36,137.877 1146.437,110.302 1130.517,137.877 "/>
<polygon fill="#574867" points="1114.597,110.306 1098.675,82.73 1082.753,110.306 "/>
<polygon fill="#574867" points="1082.753,55.15 1066.831,82.73 1050.912,55.15 "/>
<polygon fill="#D2A55D" points="1082.753,165.457 1066.831,137.882 1050.912,165.457 "/>
<polygon fill="#6552A1" points="1130.517,137.881 1114.597,165.456 1098.675,137.881 "/>
<polygon fill="#1493C6" points="1114.597,165.457 1098.675,137.882 1082.753,165.457 "/>
<polygon fill="#DAD15C" points="1066.831,137.881 1050.911,165.456 1034.987,137.881 "/>
<polyline fill="#1D437F" points="1050.911,55.15 1034.987,82.73 1066.832,82.73 "/>
<polygon fill="#68B2B0" points="1066.831,82.73 1050.911,110.306 1034.987,82.73 "/>
<polygon fill="#8BC276" points="1050.911,110.306 1034.987,137.882 1019.067,110.306 "/>
<polygon fill="#1D437F" points="1130.517,82.73 1114.597,55.15 1098.675,82.73 "/>
<polygon fill="#6552A1" points="1146.44,55.15 1130.517,82.73 1114.597,55.15 "/>
<polygon fill="#40BDB2" points="1066.831,137.881 1050.911,110.306 1034.989,137.881 "/>
<polygon fill="#EF526E" points="1146.44,110.302 1130.521,137.877 1114.599,110.302 "/>
<polygon fill="#826F8D" points="1082.753,55.15 1066.831,27.574 1050.912,55.15 "/>
<polygon fill="#67B1B1" points="1130.517,27.575 1114.597,55.151 1098.675,27.575 "/>
<polygon fill="#D3A660" points="1162.36,82.73 1146.44,110.306 1130.517,82.73 "/>
<polygon fill="#E0D984" points="1098.675,82.73 1082.755,110.306 1066.831,82.73 "/>
<polygon fill="#E0D984" points="1114.595,110.306 1130.517,82.726 1146.438,110.306 "/>
<polygon fill="#DBCF5B" points="1178.282,110.306 1162.36,82.73 1146.441,110.306 "/>
<polygon fill="#DBCF5B" points="1130.519,137.881 1114.595,110.306 1098.675,137.881 "/>
<polygon fill="#6552A1" points="1130.517,82.73 1114.597,110.306 1098.675,82.73 "/>
<polygon fill="#B63F73" points="1194.204,82.73 1178.282,55.15 1162.36,82.73 "/>
<polygon fill="#B63F73" points="1082.755,110.306 1066.833,82.726 1050.911,110.306 "/>
<polygon fill="#B63F73" points="1194.204,137.881 1178.282,110.301 1162.36,137.881 "/>
<polygon fill="#EF526E" points="1178.282,55.15 1162.36,82.73 1146.441,55.15 "/>
<polygon fill="#D3A660" points="1241.974,165.452 1226.054,137.872 1210.13,165.452 "/>
<polygon fill="#574867" points="1226.052,137.873 1210.13,165.453 1194.21,137.873 "/>
<polygon fill="#1D437F" points="1210.13,165.452 1194.21,137.872 1178.286,165.452 "/>
<polygon fill="#1D437F" points="1273.815,165.452 1257.896,137.872 1241.975,165.452 "/>
<polygon fill="#6552A1" points="1289.739,137.873 1273.815,165.453 1257.896,137.873 "/>
<polygon fill="#B33975" points="1321.581,137.873 1305.659,110.297 1289.739,137.873 "/>
<polygon fill="#826F8D" points="1226.052,137.873 1210.13,110.297 1194.21,137.873 "/>
<polygon fill="#75598C" points="1289.739,137.873 1273.815,110.297 1257.896,137.873 "/>
<polygon fill="#B63F73" points="1337.503,165.452 1321.581,137.872 1305.659,165.452 "/>
<polygon fill="#EF526E" points="1321.581,137.873 1305.659,165.453 1289.739,137.873 "/>
<polygon fill="#6299C1" points="1448.962,137.87 1433.042,165.446 1417.118,137.87 "/>
<polygon fill="#6552A1" points="1496.726,110.295 1480.806,137.87 1464.885,110.295 "/>
<polygon fill="#40BDB2" points="1433.042,165.446 1417.118,137.87 1401.198,165.446 "/>
<polygon fill="#40BDB2" points="1385.277,137.87 1369.355,110.296 1353.436,137.87 "/>
<polygon fill="#D3A660" points="1385.277,82.72 1369.357,55.14 1353.434,82.72 "/>
<polygon fill="#18A4B1" points="1480.806,137.87 1464.884,165.446 1448.962,137.87 "/>
<polygon fill="#1D437F" points="1464.884,165.446 1448.962,137.87 1433.042,165.446 "/>
<polygon fill="#1D437F" points="1448.962,137.866 1433.038,110.29 1417.118,137.866 "/>
<polygon fill="#574867" points="1401.199,110.295 1385.277,82.72 1369.354,110.295 "/>
<polygon fill="#574867" points="1369.355,55.14 1353.434,82.72 1337.515,55.14 "/>
<polygon fill="#1D437F" points="1385.277,137.87 1369.355,165.446 1353.434,137.87 "/>
<polygon fill="#D2A55D" points="1369.355,165.446 1353.434,137.87 1337.515,165.446 "/>
<polygon fill="#6552A1" points="1417.118,137.87 1401.198,165.446 1385.277,137.87 "/>
<polygon fill="#1493C6" points="1401.199,165.446 1385.277,137.87 1369.354,165.446 "/>
<polygon fill="#1493C6" points="1369.354,110.291 1385.277,137.867 1401.197,110.291 "/>
<polygon fill="#CA8F3A" points="1369.357,110.291 1353.434,137.867 1337.514,110.291 "/>
<polygon fill="#1B8872" points="1337.514,110.295 1321.59,82.72 1305.67,110.295 "/>
<polygon fill="#8BC276" points="1337.514,110.295 1321.59,137.87 1305.67,110.295 "/>
<polygon fill="#1D437F" points="1417.118,82.72 1401.198,55.14 1385.277,82.72 "/>
<polygon fill="#40BDB2" points="1353.434,137.87 1337.514,110.296 1321.593,137.87 "/>
<polygon fill="#B33975" points="1464.884,55.14 1448.962,27.564 1433.042,55.14 "/>
<polygon fill="#EF526E" points="1433.042,110.291 1417.122,137.867 1401.2,110.291 "/>
<polygon fill="#826F8D" points="1369.355,55.14 1353.434,27.564 1337.515,55.14 "/>
<polygon fill="#75598C" points="1433.042,55.14 1417.118,27.564 1401.198,55.14 "/>
<polygon fill="#E0D984" points="1480.806,82.72 1464.884,110.296 1448.962,82.72 "/>
<polygon fill="#E0D984" points="1385.277,82.72 1369.357,110.296 1353.434,82.72 "/>
<polygon fill="#DBCF5B" points="1417.12,137.87 1401.196,110.296 1385.276,137.87 "/>
<polygon fill="#6552A1" points="1417.118,82.72 1401.198,110.296 1385.277,82.72 "/>
<polygon fill="#63B34F" points="1496.726,110.295 1480.806,82.72 1464.885,110.295 "/>
<polygon fill="#B63F73" points="1480.806,137.87 1464.884,110.291 1448.962,137.87 "/>
<polygon fill="#EF526E" points="1464.884,55.14 1448.962,82.72 1433.042,55.14 "/>
<polygon fill="#D3A660" points="1528.585,165.444 1512.665,137.864 1496.74,165.444 "/>
<polygon fill="#574867" points="1512.663,137.864 1496.741,165.444 1480.821,137.864 "/>
<polyline fill="#1D437F" points="1480.821,137.864 1464.897,165.444 1496.741,165.444 "/>
<polygon fill="#1D437F" points="1560.426,165.444 1544.506,137.864 1528.585,165.444 "/>
<polygon fill="#1493C6" points="1544.507,137.864 1528.585,165.444 1512.662,137.864 "/>
<polygon fill="#6552A1" points="1576.351,137.864 1560.426,165.444 1544.506,137.864 "/>
<polygon fill="#40BDB2" points="1592.271,165.444 1576.35,137.864 1560.426,165.444 "/>
<polygon fill="#EF526E" points="1592.271,110.289 1576.35,137.864 1560.426,110.289 "/>
<polygon fill="#40BDB2" points="1544.507,137.864 1528.585,110.288 1512.662,137.864 "/>
<polygon fill="#6552A1" points="1528.585,110.289 1512.663,137.864 1496.74,110.289 "/>
<polygon fill="#75598C" points="1576.351,137.864 1560.426,110.288 1544.506,137.864 "/>
<polygon fill="#B63F73" points="1624.113,165.444 1608.191,137.864 1592.27,165.444 "/>
<polygon fill="#EF526E" points="1608.191,137.864 1592.27,165.444 1576.35,137.864 "/>
<polygon fill="#6552A1" points="1783.345,110.287 1767.425,137.861 1751.504,110.287 "/>
<polygon fill="#40BDB2" points="1719.661,165.438 1703.737,137.861 1687.817,165.438 "/>
<polygon fill="#40BDB2" points="1671.896,137.862 1655.974,110.287 1640.054,137.862 "/>
<polygon fill="#D3A660" points="1671.896,82.711 1655.976,55.131 1640.052,82.711 "/>
<polygon fill="#574867" points="1655.974,55.132 1640.052,82.711 1624.132,55.132 "/>
<polygon fill="#1D437F" points="1671.896,137.862 1655.974,165.438 1640.052,137.862 "/>
<polygon fill="#D2A55D" points="1655.974,165.438 1640.052,137.861 1624.132,165.438 "/>
<polygon fill="#CA8F3A" points="1655.977,110.282 1640.052,137.858 1624.132,110.282 "/>
<polygon fill="#DAD15C" points="1640.052,137.862 1624.132,165.438 1608.208,137.862 "/>
<polygon fill="#1B8872" points="1624.133,110.287 1608.208,82.711 1592.288,110.287 "/>
<polygon fill="#1D437F" points="1703.737,82.711 1687.817,55.131 1671.896,82.711 "/>
<polygon fill="#6552A1" points="1719.661,55.132 1703.737,82.711 1687.817,55.132 "/>
<polygon fill="#40BDB2" points="1640.052,137.862 1624.132,110.287 1608.212,137.862 "/>
<polygon fill="#B33975" points="1751.503,55.132 1735.581,27.557 1719.661,55.132 "/>
<polygon fill="#B33975" points="1671.888,27.575 1655.966,0 1640.046,27.575 "/>
<polygon fill="#EF526E" points="1719.661,110.282 1703.741,137.858 1687.821,110.282 "/>
<polygon fill="#6552A1" points="1671.896,27.556 1655.974,55.131 1640.052,27.556 "/>
<polygon fill="#75598C" points="1719.661,55.132 1703.737,27.557 1687.817,55.132 "/>
<polyline fill="#E0D984" points="1655.977,110.287 1640.052,82.711 1671.896,82.711 "/>
<polygon fill="#E0D984" points="1687.815,110.287 1703.737,82.707 1719.659,110.287 "/>
<polygon fill="#DBCF5B" points="1703.739,137.862 1687.815,110.287 1671.896,137.862 "/>
<polygon fill="#6552A1" points="1703.737,82.711 1687.817,110.287 1671.896,82.711 "/>
<polygon fill="#63B34F" points="1783.345,110.287 1767.425,82.711 1751.504,110.287 "/>
<polygon fill="#B63F73" points="1655.977,110.287 1640.054,82.707 1624.132,110.287 "/>
<polygon fill="#D3A660" points="1815.204,165.461 1799.284,137.881 1783.359,165.461 "/>
<polygon fill="#574867" points="1799.282,137.881 1783.36,165.461 1767.44,137.881 "/>
<polygon fill="#1D437F" points="1783.36,165.461 1767.44,137.881 1751.516,165.461 "/>
<polygon fill="#B33975" points="1894.811,137.881 1878.889,110.306 1862.97,137.881 "/>
<polygon fill="#40BDB2" points="1831.126,137.881 1815.203,110.306 1799.281,137.881 "/>
<polygon fill="#6552A1" points="1815.204,110.306 1799.282,137.882 1783.359,110.306 "/>
<polygon fill="#EF526E" points="1894.811,137.881 1878.889,165.461 1862.97,137.881 "/>
<polygon fill="#D3A660" points="31.839,165.461 15.919,137.881 0,165.461 "/>
<polygon fill="#1D437F" points="63.683,165.461 47.763,137.881 31.841,165.461 "/>
<polygon fill="#1493C6" points="47.763,137.881 31.841,165.461 15.919,137.881 "/>
<polygon fill="#6552A1" points="79.606,137.881 63.683,165.461 47.763,137.881 "/>
<polygon fill="#40BDB2" points="95.526,165.461 79.606,137.881 63.683,165.461 "/>
<polygon fill="#B33975" points="111.448,137.881 95.526,110.306 79.607,137.881 "/>
<polygon fill="#EF526E" points="95.526,110.306 79.606,137.882 63.683,110.306 "/>
<polygon fill="#40BDB2" points="47.763,137.881 31.841,110.306 15.919,137.881 "/>
<polygon fill="#6552A1" points="31.841,110.306 15.919,137.882 0,110.306 "/>
<polygon fill="#75598C" points="79.606,137.881 63.683,110.306 47.763,137.881 "/>
<polygon fill="#B63F73" points="127.37,165.461 111.448,137.881 95.526,165.461 "/>
<polygon fill="#EF526E" points="111.448,137.881 95.526,165.461 79.607,137.881 "/>
<polygon fill="#6299C1" points="238.836,137.881 222.916,165.456 206.992,137.881 "/>
<polygon fill="#6552A1" points="286.6,110.306 270.68,137.882 254.758,110.306 "/>
<polygon fill="#40BDB2" points="222.916,165.457 206.992,137.882 191.072,165.457 "/>
<polygon fill="#40BDB2" points="175.15,137.881 159.229,110.306 143.31,137.881 "/>
<polygon fill="#D3A660" points="175.15,82.73 159.23,55.15 143.307,82.73 "/>
<polygon fill="#18A4B1" points="270.68,137.881 254.758,165.456 238.836,137.881 "/>
<polygon fill="#1D437F" points="254.758,165.457 238.836,137.882 222.917,165.457 "/>
<polygon fill="#1D437F" points="238.836,137.877 222.912,110.302 206.992,137.877 "/>
<polygon fill="#574867" points="191.072,110.306 175.15,82.73 159.229,110.306 "/>
<polygon fill="#574867" points="159.229,55.15 143.307,82.73 127.388,55.15 "/>
<polygon fill="#D2A55D" points="159.229,165.457 143.307,137.882 127.388,165.457 "/>
<polygon fill="#6552A1" points="206.992,137.881 191.072,165.456 175.15,137.881 "/>
<polygon fill="#1493C6" points="191.072,165.457 175.15,137.882 159.229,165.457 "/>
<polygon fill="#DAD15C" points="143.307,137.881 127.387,165.456 111.463,137.881 "/>
<polyline fill="#1D437F" points="127.387,55.15 111.463,82.73 143.308,82.73 "/>
<polygon fill="#68B2B0" points="143.307,82.73 127.387,110.306 111.463,82.73 "/>
<polygon fill="#8BC276" points="127.387,110.306 111.463,137.882 95.543,110.306 "/>
<polygon fill="#1D437F" points="206.992,82.73 191.072,55.15 175.15,82.73 "/>
<polygon fill="#6552A1" points="222.916,55.15 206.992,82.73 191.072,55.15 "/>
<polygon fill="#40BDB2" points="143.307,137.881 127.387,110.306 111.465,137.881 "/>
<polygon fill="#EF526E" points="222.916,110.302 206.996,137.877 191.074,110.302 "/>
<polygon fill="#826F8D" points="159.229,55.15 143.307,27.574 127.388,55.15 "/>
<polygon fill="#67B1B1" points="206.992,27.575 191.072,55.151 175.15,27.575 "/>
<polygon fill="#D3A660" points="238.836,82.73 222.916,110.306 206.992,82.73 "/>
<polygon fill="#E0D984" points="175.15,82.73 159.23,110.306 143.307,82.73 "/>
<polygon fill="#E0D984" points="191.07,110.306 206.992,82.726 222.914,110.306 "/>
<polygon fill="#DBCF5B" points="254.758,110.306 238.836,82.73 222.917,110.306 "/>
<polygon fill="#DBCF5B" points="206.994,137.881 191.07,110.306 175.15,137.881 "/>
<polygon fill="#6552A1" points="206.992,82.73 191.072,110.306 175.15,82.73 "/>
<polygon fill="#B63F73" points="270.68,82.73 254.758,55.15 238.836,82.73 "/>
<polygon fill="#B63F73" points="159.23,110.306 143.309,82.726 127.387,110.306 "/>
<polygon fill="#B63F73" points="270.68,137.881 254.758,110.301 238.836,137.881 "/>
<polygon fill="#EF526E" points="254.758,55.15 238.836,82.73 222.917,55.15 "/>
<polygon fill="#D3A660" points="318.449,165.452 302.529,137.872 286.605,165.452 "/>
<polygon fill="#574867" points="302.527,137.873 286.605,165.453 270.686,137.873 "/>
<polygon fill="#1D437F" points="286.605,165.452 270.686,137.872 254.762,165.452 "/>
<polygon fill="#1D437F" points="350.291,165.452 334.371,137.872 318.45,165.452 "/>
<polygon fill="#6552A1" points="366.215,137.873 350.291,165.453 334.371,137.873 "/>
<polygon fill="#B33975" points="398.057,137.873 382.135,110.297 366.215,137.873 "/>
<polygon fill="#826F8D" points="302.527,137.873 286.605,110.297 270.686,137.873 "/>
<polygon fill="#75598C" points="366.215,137.873 350.291,110.297 334.371,137.873 "/>
<polygon fill="#B63F73" points="413.979,165.452 398.057,137.872 382.135,165.452 "/>
<polygon fill="#EF526E" points="398.057,137.873 382.135,165.453 366.215,137.873 "/>
<polygon fill="#6299C1" points="525.438,137.87 509.518,165.446 493.594,137.87 "/>
<polygon fill="#6552A1" points="573.201,110.295 557.281,137.87 541.36,110.295 "/>
<polygon fill="#40BDB2" points="509.518,165.446 493.594,137.87 477.674,165.446 "/>
<polygon fill="#40BDB2" points="461.753,137.87 445.831,110.296 429.911,137.87 "/>
<polygon fill="#D3A660" points="461.753,82.72 445.833,55.14 429.909,82.72 "/>
<polygon fill="#18A4B1" points="557.281,137.87 541.359,165.446 525.438,137.87 "/>
<polygon fill="#1D437F" points="541.359,165.446 525.438,137.87 509.518,165.446 "/>
<polygon fill="#1D437F" points="525.438,137.866 509.514,110.29 493.594,137.866 "/>
<polygon fill="#574867" points="477.675,110.295 461.753,82.72 445.83,110.295 "/>
<polygon fill="#574867" points="445.831,55.14 429.909,82.72 413.99,55.14 "/>
<polygon fill="#1D437F" points="461.753,137.87 445.831,165.446 429.909,137.87 "/>
<polygon fill="#D2A55D" points="445.831,165.446 429.909,137.87 413.99,165.446 "/>
<polygon fill="#6552A1" points="493.594,137.87 477.674,165.446 461.753,137.87 "/>
<polygon fill="#1493C6" points="477.675,165.446 461.753,137.87 445.83,165.446 "/>
<polygon fill="#1493C6" points="445.829,110.291 461.753,137.867 477.673,110.291 "/>
<polygon fill="#CA8F3A" points="445.833,110.291 429.909,137.867 413.989,110.291 "/>
<polygon fill="#1B8872" points="413.989,110.295 398.065,82.72 382.146,110.295 "/>
<polygon fill="#8BC276" points="413.989,110.295 398.065,137.87 382.146,110.295 "/>
<polygon fill="#1D437F" points="493.594,82.72 477.674,55.14 461.753,82.72 "/>
<polygon fill="#40BDB2" points="429.909,137.87 413.989,110.296 398.068,137.87 "/>
<polygon fill="#B33975" points="541.359,55.14 525.438,27.564 509.518,55.14 "/>
<polygon fill="#EF526E" points="509.518,110.291 493.598,137.867 477.676,110.291 "/>
<polygon fill="#826F8D" points="445.831,55.14 429.909,27.564 413.99,55.14 "/>
<polygon fill="#75598C" points="509.518,55.14 493.594,27.564 477.674,55.14 "/>
<polygon fill="#E0D984" points="557.281,82.72 541.359,110.296 525.438,82.72 "/>
<polygon fill="#E0D984" points="461.753,82.72 445.833,110.296 429.909,82.72 "/>
<polygon fill="#DBCF5B" points="493.596,137.87 477.672,110.296 461.752,137.87 "/>
<polygon fill="#6552A1" points="493.594,82.72 477.674,110.296 461.753,82.72 "/>
<polygon fill="#63B34F" points="573.201,110.295 557.281,82.72 541.36,110.295 "/>
<polygon fill="#B63F73" points="557.281,137.87 541.359,110.291 525.438,137.87 "/>
<polygon fill="#EF526E" points="541.359,55.14 525.438,82.72 509.518,55.14 "/>
<polygon fill="#D3A660" points="605.061,165.444 589.141,137.864 573.216,165.444 "/>
<polygon fill="#574867" points="589.139,137.864 573.217,165.444 557.297,137.864 "/>
<polyline fill="#1D437F" points="557.297,137.864 541.373,165.444 573.217,165.444 "/>
<polygon fill="#1D437F" points="636.901,165.444 620.981,137.864 605.061,165.444 "/>
<polygon fill="#1493C6" points="620.982,137.864 605.061,165.444 589.138,137.864 "/>
<polygon fill="#6552A1" points="652.826,137.864 636.901,165.444 620.981,137.864 "/>
<polygon fill="#40BDB2" points="668.746,165.444 652.825,137.864 636.901,165.444 "/>
<polygon fill="#EF526E" points="668.746,110.289 652.825,137.864 636.901,110.289 "/>
<polygon fill="#40BDB2" points="620.982,137.864 605.061,110.288 589.138,137.864 "/>
<polygon fill="#6552A1" points="605.061,110.289 589.139,137.864 573.216,110.289 "/>
<polygon fill="#75598C" points="652.826,137.864 636.901,110.288 620.981,137.864 "/>
<polygon fill="#B63F73" points="700.589,165.444 684.667,137.864 668.745,165.444 "/>
<polygon fill="#EF526E" points="684.667,137.864 668.745,165.444 652.825,137.864 "/>
<polygon fill="#6552A1" points="859.82,110.287 843.9,137.861 827.979,110.287 "/>
<polygon fill="#40BDB2" points="796.137,165.438 780.213,137.861 764.293,165.438 "/>
<polygon fill="#40BDB2" points="748.372,137.862 732.449,110.287 716.529,137.862 "/>
<polygon fill="#D3A660" points="748.372,82.711 732.451,55.131 716.527,82.711 "/>
<polygon fill="#574867" points="732.449,55.132 716.527,82.711 700.607,55.132 "/>
<polygon fill="#1D437F" points="748.372,137.862 732.449,165.438 716.527,137.862 "/>
<polygon fill="#D2A55D" points="732.449,165.438 716.527,137.861 700.607,165.438 "/>
<polygon fill="#CA8F3A" points="732.452,110.282 716.527,137.858 700.607,110.282 "/>
<polygon fill="#DAD15C" points="716.527,137.862 700.607,165.438 684.684,137.862 "/>
<polygon fill="#1B8872" points="700.608,110.287 684.684,82.711 668.764,110.287 "/>
<polygon fill="#1D437F" points="780.213,82.711 764.293,55.131 748.372,82.711 "/>
<polygon fill="#6552A1" points="796.137,55.132 780.213,82.711 764.293,55.132 "/>
<polygon fill="#40BDB2" points="716.527,137.862 700.607,110.287 684.688,137.862 "/>
<polygon fill="#B33975" points="827.979,55.132 812.057,27.557 796.137,55.132 "/>
<polygon fill="#B33975" points="748.363,27.575 732.441,0 716.521,27.575 "/>
<polygon fill="#EF526E" points="796.137,110.282 780.217,137.858 764.297,110.282 "/>
<polygon fill="#6552A1" points="748.372,27.556 732.449,55.131 716.527,27.556 "/>
<polygon fill="#75598C" points="796.137,55.132 780.213,27.557 764.293,55.132 "/>
<polyline fill="#E0D984" points="732.452,110.287 716.527,82.711 748.372,82.711 "/>
<polygon fill="#E0D984" points="764.291,110.287 780.213,82.707 796.135,110.287 "/>
<polygon fill="#DBCF5B" points="780.215,137.862 764.291,110.287 748.371,137.862 "/>
<polygon fill="#6552A1" points="780.213,82.711 764.293,110.287 748.372,82.711 "/>
<polygon fill="#63B34F" points="859.82,110.287 843.9,82.711 827.979,110.287 "/>
<polygon fill="#B63F73" points="732.452,110.287 716.529,82.707 700.607,110.287 "/>
<polygon fill="#D3A660" points="891.68,165.461 875.76,137.881 859.835,165.461 "/>
<polygon fill="#574867" points="875.758,137.881 859.836,165.461 843.916,137.881 "/>
<polygon fill="#1D437F" points="859.836,165.461 843.916,137.881 827.991,165.461 "/>
<polygon fill="#B33975" points="971.286,137.881 955.364,110.306 939.445,137.881 "/>
<polygon fill="#40BDB2" points="907.602,137.881 891.679,110.306 875.757,137.881 "/>
<polygon fill="#6552A1" points="891.68,110.306 875.758,137.882 859.835,110.306 "/>
<polygon fill="#EF526E" points="971.286,137.881 955.364,165.461 939.445,137.881 "/>
<polygon fill="#D3A660" points="1847.028,165.461 1831.108,137.881 1815.189,165.461 "/>
<polygon fill="#574867" points="1831.108,137.881 1815.188,165.461 1799.265,137.881 "/>
<polygon fill="#1D437F" points="1815.189,165.461 1799.265,137.881 1783.345,165.461 "/>
<polygon fill="#1D437F" points="1878.872,165.461 1862.952,137.881 1847.03,165.461 "/>
<polygon fill="#1493C6" points="1862.952,137.881 1847.03,165.461 1831.108,137.881 "/>
<polygon fill="#6552A1" points="1894.796,137.881 1878.872,165.461 1862.952,137.881 "/>
<polygon fill="#40BDB2" points="1910.716,165.461 1894.796,137.881 1878.872,165.461 "/>
<polygon fill="#B33975" points="1926.638,137.881 1910.716,110.306 1894.797,137.881 "/>
<polygon fill="#EF526E" points="1910.716,110.306 1894.796,137.882 1878.872,110.306 "/>
<polygon fill="#826F8D" points="1831.108,137.881 1815.188,110.306 1799.265,137.881 "/>
<polygon fill="#40BDB2" points="1862.952,137.881 1847.03,110.306 1831.108,137.881 "/>
<polygon fill="#6552A1" points="1847.03,110.306 1831.108,137.882 1815.189,110.306 "/>
<polygon fill="#75598C" points="1894.796,137.881 1878.872,110.306 1862.952,137.881 "/>
<polygon fill="#B63F73" points="1942.56,165.461 1926.638,137.881 1910.716,165.461 "/>
<polygon fill="#EF526E" points="1926.638,137.881 1910.716,165.461 1894.797,137.881 "/>
<polygon fill="#6299C1" points="2054.025,137.881 2038.105,165.456 2022.182,137.881 "/>
<polygon fill="#6552A1" points="2101.789,110.306 2085.869,137.882 2069.947,110.306 "/>
<polygon fill="#40BDB2" points="2038.105,165.457 2022.182,137.882 2006.262,165.457 "/>
<polygon fill="#40BDB2" points="1990.34,137.881 1974.418,110.306 1958.499,137.881 "/>
<polygon fill="#D3A660" points="1990.34,82.73 1974.42,55.15 1958.496,82.73 "/>
<polygon fill="#18A4B1" points="2085.869,137.881 2069.947,165.456 2054.025,137.881 "/>
<polygon fill="#1D437F" points="2069.947,165.457 2054.025,137.882 2038.106,165.457 "/>
<polygon fill="#1D437F" points="2054.025,137.877 2038.102,110.302 2022.182,137.877 "/>
<polygon fill="#574867" points="2006.262,110.306 1990.34,82.73 1974.418,110.306 "/>
<polygon fill="#574867" points="1974.418,55.15 1958.496,82.73 1942.577,55.15 "/>
<polygon fill="#D2A55D" points="1974.418,165.457 1958.496,137.882 1942.577,165.457 "/>
<polygon fill="#6552A1" points="2022.182,137.881 2006.262,165.456 1990.34,137.881 "/>
<polygon fill="#1493C6" points="2006.262,165.457 1990.34,137.882 1974.418,165.457 "/>
<polygon fill="#DAD15C" points="1958.496,137.881 1942.576,165.456 1926.652,137.881 "/>
<polyline fill="#1D437F" points="1942.576,55.15 1926.652,82.73 1958.497,82.73 "/>
<polygon fill="#68B2B0" points="1958.496,82.73 1942.576,110.306 1926.652,82.73 "/>
<polygon fill="#8BC276" points="1942.576,110.306 1926.652,137.882 1910.732,110.306 "/>
<polygon fill="#1D437F" points="2022.182,82.73 2006.262,55.15 1990.34,82.73 "/>
<polygon fill="#6552A1" points="2038.105,55.15 2022.182,82.73 2006.262,55.15 "/>
<polygon fill="#40BDB2" points="1958.496,137.881 1942.576,110.306 1926.654,137.881 "/>
<polygon fill="#EF526E" points="2038.105,110.302 2022.186,137.877 2006.264,110.302 "/>
<polygon fill="#826F8D" points="1974.418,55.15 1958.496,27.574 1942.577,55.15 "/>
<polygon fill="#67B1B1" points="2022.182,27.575 2006.262,55.151 1990.34,27.575 "/>
<polygon fill="#D3A660" points="2054.025,82.73 2038.105,110.306 2022.182,82.73 "/>
<polygon fill="#E0D984" points="1990.34,82.73 1974.42,110.306 1958.496,82.73 "/>
<polygon fill="#E0D984" points="2006.26,110.306 2022.182,82.726 2038.104,110.306 "/>
<polygon fill="#DBCF5B" points="2069.947,110.306 2054.025,82.73 2038.106,110.306 "/>
<polygon fill="#DBCF5B" points="2022.184,137.881 2006.26,110.306 1990.34,137.881 "/>
<polygon fill="#6552A1" points="2022.182,82.73 2006.262,110.306 1990.34,82.73 "/>
<polygon fill="#B63F73" points="2085.869,82.73 2069.947,55.15 2054.025,82.73 "/>
<polygon fill="#B63F73" points="1974.42,110.306 1958.498,82.726 1942.576,110.306 "/>
<polygon fill="#B63F73" points="2085.869,137.881 2069.947,110.301 2054.025,137.881 "/>
<polygon fill="#EF526E" points="2069.947,55.15 2054.025,82.73 2038.106,55.15 "/>
<polygon fill="#D3A660" points="2133.639,165.452 2117.719,137.872 2101.795,165.452 "/>
<polygon fill="#574867" points="2117.717,137.873 2101.795,165.453 2085.875,137.873 "/>
<polygon fill="#1D437F" points="2101.795,165.452 2085.875,137.872 2069.951,165.452 "/>
<polygon fill="#1D437F" points="2165.48,165.452 2149.561,137.872 2133.64,165.452 "/>
<polygon fill="#6552A1" points="2181.404,137.873 2165.48,165.453 2149.561,137.873 "/>
<polygon fill="#B33975" points="2213.246,137.873 2197.324,110.297 2181.404,137.873 "/>
<polygon fill="#826F8D" points="2117.717,137.873 2101.795,110.297 2085.875,137.873 "/>
<polygon fill="#75598C" points="2181.404,137.873 2165.48,110.297 2149.561,137.873 "/>
<polygon fill="#B63F73" points="2229.168,165.452 2213.246,137.872 2197.324,165.452 "/>
<polygon fill="#EF526E" points="2213.246,137.873 2197.324,165.453 2181.404,137.873 "/>
<polygon fill="#6299C1" points="2340.627,137.87 2324.707,165.446 2308.783,137.87 "/>
<polygon fill="#6552A1" points="2388.391,110.295 2372.471,137.87 2356.55,110.295 "/>
<polygon fill="#40BDB2" points="2324.707,165.446 2308.783,137.87 2292.863,165.446 "/>
<polygon fill="#40BDB2" points="2276.942,137.87 2261.021,110.296 2245.101,137.87 "/>
<polygon fill="#D3A660" points="2276.942,82.72 2261.022,55.14 2245.099,82.72 "/>
<polygon fill="#18A4B1" points="2372.471,137.87 2356.549,165.446 2340.627,137.87 "/>
<polygon fill="#1D437F" points="2356.549,165.446 2340.627,137.87 2324.707,165.446 "/>
<polygon fill="#1D437F" points="2340.627,137.866 2324.703,110.29 2308.783,137.866 "/>
<polygon fill="#574867" points="2292.864,110.295 2276.942,82.72 2261.02,110.295 "/>
<polygon fill="#574867" points="2261.021,55.14 2245.099,82.72 2229.18,55.14 "/>
<polygon fill="#1D437F" points="2276.942,137.87 2261.021,165.446 2245.099,137.87 "/>
<polygon fill="#D2A55D" points="2261.021,165.446 2245.099,137.87 2229.18,165.446 "/>
<polygon fill="#6552A1" points="2308.783,137.87 2292.863,165.446 2276.942,137.87 "/>
<polygon fill="#1493C6" points="2292.864,165.446 2276.942,137.87 2261.02,165.446 "/>
<polygon fill="#1493C6" points="2261.019,110.291 2276.942,137.867 2292.862,110.291 "/>
<polygon fill="#CA8F3A" points="2261.022,110.291 2245.099,137.867 2229.179,110.291 "/>
<polygon fill="#1B8872" points="2229.179,110.295 2213.255,82.72 2197.335,110.295 "/>
<polygon fill="#8BC276" points="2229.179,110.295 2213.255,137.87 2197.335,110.295 "/>
<polygon fill="#1D437F" points="2308.783,82.72 2292.863,55.14 2276.942,82.72 "/>
<polygon fill="#40BDB2" points="2245.099,137.87 2229.179,110.296 2213.258,137.87 "/>
<polygon fill="#B33975" points="2356.549,55.14 2340.627,27.564 2324.707,55.14 "/>
<polygon fill="#EF526E" points="2324.707,110.291 2308.787,137.867 2292.865,110.291 "/>
<polygon fill="#826F8D" points="2261.021,55.14 2245.099,27.564 2229.18,55.14 "/>
<polygon fill="#75598C" points="2324.707,55.14 2308.783,27.564 2292.863,55.14 "/>
<polygon fill="#E0D984" points="2372.471,82.72 2356.549,110.296 2340.627,82.72 "/>
<polygon fill="#E0D984" points="2276.942,82.72 2261.022,110.296 2245.099,82.72 "/>
<polygon fill="#DBCF5B" points="2308.785,137.87 2292.861,110.296 2276.941,137.87 "/>
<polygon fill="#6552A1" points="2308.783,82.72 2292.863,110.296 2276.942,82.72 "/>
<polygon fill="#63B34F" points="2388.391,110.295 2372.471,82.72 2356.55,110.295 "/>
<polygon fill="#B63F73" points="2372.471,137.87 2356.549,110.291 2340.627,137.87 "/>
<polygon fill="#EF526E" points="2356.549,55.14 2340.627,82.72 2324.707,55.14 "/>
<polygon fill="#D3A660" points="2420.25,165.444 2404.33,137.864 2388.405,165.444 "/>
<polygon fill="#574867" points="2404.328,137.864 2388.406,165.444 2372.486,137.864 "/>
<polyline fill="#1D437F" points="2372.486,137.864 2356.562,165.444 2388.406,165.444 "/>
<polygon fill="#1D437F" points="2452.091,165.444 2436.171,137.864 2420.25,165.444 "/>
<polygon fill="#1493C6" points="2436.172,137.864 2420.25,165.444 2404.327,137.864 "/>
<polygon fill="#6552A1" points="2468.016,137.864 2452.091,165.444 2436.171,137.864 "/>
<polygon fill="#40BDB2" points="2483.936,165.444 2468.015,137.864 2452.091,165.444 "/>
<polygon fill="#EF526E" points="2483.936,110.289 2468.015,137.864 2452.091,110.289 "/>
<polygon fill="#40BDB2" points="2436.172,137.864 2420.25,110.288 2404.327,137.864 "/>
<polygon fill="#6552A1" points="2420.25,110.289 2404.328,137.864 2388.405,110.289 "/>
<polygon fill="#75598C" points="2468.016,137.864 2452.091,110.288 2436.171,137.864 "/>
</svg>
